{"accessors":[{"bufferView":2,"componentType":5126,"count":6925,"max":[3.278599977493286,1.0845999717712402,10.306599617004395],"min":[-3.278599977493286,-1.3463000059127808,0.000699999975040555],"type":"VEC3"},{"bufferView":2,"byteOffset":83100,"componentType":5126,"count":6925,"max":[0.9994502663612366,0.9999444484710693,0.9999802112579346],"min":[-0.9994956851005554,-0.9999549388885498,-0.9996129870414734],"type":"VEC3"},{"bufferView":1,"componentType":5126,"count":6925,"max":[0.9969000220298767,-0.0031999999191612005],"min":[0.0035000001080334187,-0.9972000122070312],"type":"VEC2"},{"bufferView":0,"componentType":5125,"count":27954,"type":"SCALAR"},{"bufferView":2,"byteOffset":166200,"componentType":5126,"count":242,"max":[3.7528998851776123,2.6614999771118164,6.915900230407715],"min":[-0.27869999408721924,0.09399999678134918,2.7565999031066895],"type":"VEC3"},{"bufferView":2,"byteOffset":169104,"componentType":5126,"count":242,"max":[0.8942946791648865,0.9643636345863342,0.9356068968772888],"min":[-0.8357009887695312,-0.9783968329429626,-0.9802635312080383],"type":"VEC3"},{"bufferView":1,"byteOffset":55400,"componentType":5126,"count":242,"max":[0.9233999848365784,-0.016300000250339508],"min":[0.05310000106692314,-0.9843000173568726],"type":"VEC2"},{"bufferView":0,"byteOffset":111816,"componentType":5125,"count":966,"type":"SCALAR"},{"bufferView":2,"byteOffset":172008,"componentType":5126,"count":1447,"max":[0.7091000080108643,0.008200000040233135,8.573200225830078],"min":[-0.7091000080108643,-0.8903999924659729,7.071400165557861],"type":"VEC3"},{"bufferView":2,"byteOffset":189372,"componentType":5126,"count":1447,"max":[0.9981162548065186,0.9999775886535645,0.9999583959579468],"min":[-0.9981162548065186,-0.9998288750648499,-0.9999327659606934],"type":"VEC3"},{"bufferView":1,"byteOffset":57336,"componentType":5126,"count":1447,"max":[0.9703999757766724,-0.0038999998942017555],"min":[0.029600000008940697,-0.9987000226974487],"type":"VEC2"},{"bufferView":0,"byteOffset":115680,"componentType":5125,"count":6756,"type":"SCALAR"},{"bufferView":2,"byteOffset":206736,"componentType":5126,"count":1074,"max":[1.753000020980835,1.1715999841690063,9.185099601745605],"min":[-1.670799970626831,-1.0396000146865845,6.043300151824951],"type":"VEC3"},{"bufferView":2,"byteOffset":219624,"componentType":5126,"count":1074,"max":[0.9975554347038269,0.9997645020484924,0.9987064599990845],"min":[-0.999511182308197,-0.9999401569366455,-0.9901556968688965],"type":"VEC3"},{"bufferView":1,"byteOffset":68912,"componentType":5126,"count":1074,"max":[0.996399998664856,-0.006099999882280827],"min":[0.0008999999845400453,-0.9943000078201294],"type":"VEC2"},{"bufferView":0,"byteOffset":142704,"componentType":5125,"count":4386,"type":"SCALAR"}],"asset":{"extras":{"author":"Commando2 (https://sketchfab.com/Commando2)","license":"CC-BY-4.0 (http://creativecommons.org/licenses/by/4.0/)","source":"https://sketchfab.com/3d-models/genshin-impact-paimon-ff5bed5868754fbeb82f36d942b44ad8","title":"Genshin Impact - Paimon"},"generator":"Sketchfab-13.79.0","version":"2.0"},"bufferViews":[{"buffer":0,"byteLength":160248,"name":"floatBufferViews","target":34963},{"buffer":0,"byteLength":77504,"byteOffset":160248,"byteStride":8,"name":"floatBufferViews","target":34962},{"buffer":0,"byteLength":232512,"byteOffset":237752,"byteStride":12,"name":"floatBufferViews","target":34962}],"buffers":[{"byteLength":470264,"uri":"data:application/octet-stream;base64,"}],"extensionsUsed":["KHR_materials_unlit"],"images":[{"uri":"data:application/octet-stream;base64,"},{"uri":"data:application/octet-stream;base64,"},{"uri":"data:application/octet-stream;base64,"},{"uri":"data:application/octet-stream;base64,"}],"materials":[{"doubleSided":true,"emissiveTexture":{"index":0},"extensions":{"KHR_materials_unlit":{}},"name":"Material__29","pbrMetallicRoughness":{"baseColorTexture":{"index":0},"metallicFactor":0}},{"doubleSided":true,"emissiveTexture":{"index":1},"extensions":{"KHR_materials_unlit":{}},"name":"Material__30","pbrMetallicRoughness":{"baseColorTexture":{"index":1},"metallicFactor":0}},{"doubleSided":true,"emissiveTexture":{"index":2},"extensions":{"KHR_materials_unlit":{}},"name":"Material__31","pbrMetallicRoughness":{"baseColorTexture":{"index":2},"metallicFactor":0}},{"doubleSided":true,"emissiveTexture":{"index":3},"extensions":{"KHR_materials_unlit":{}},"name":"Material__32","pbrMetallicRoughness":{"baseColorTexture":{"index":3},"metallicFactor":0}}],"meshes":[{"name":"Object_0","primitives":[{"attributes":{"NORMAL":1,"POSITION":0,"TEXCOORD_0":2},"indices":3,"material":0,"mode":4}]},{"name":"Object_1","primitives":[{"attributes":{"NORMAL":5,"POSITION":4,"TEXCOORD_0":6},"indices":7,"material":1,"mode":4}]},{"name":"Object_2","primitives":[{"attributes":{"NORMAL":9,"POSITION":8,"TEXCOORD_0":10},"indices":11,"material":2,"mode":4}]},{"name":"Object_3","primitives":[{"attributes":{"NORMAL":13,"POSITION":12,"TEXCOORD_0":14},"indices":15,"material":3,"mode":4}]}],"nodes":[{"children":[1],"matrix":[0.20778238773345947,0,0,0,0,4.613695819465568e-17,-0.20778238773345947,0,0,0.20778238773345947,4.613695819465568e-17,0,0,0,0,1],"name":"Sketchfab_model"},{"children":[2,3,4,5],"name":"Paimon.obj.cleaner.materialmerger.gles"},{"mesh":0,"name":"Object_2"},{"mesh":1,"name":"Object_3"},{"mesh":2,"name":"Object_4"},{"mesh":3,"name":"Object_5"}],"samplers":[{"magFilter":9729,"minFilter":9987,"wrapS":10497,"wrapT":10497}],"scene":0,"scenes":[{"name":"Sketchfab_Scene","nodes":[0]}],"textures":[{"sampler":0,"source":0},{"sampler":0,"source":1},{"sampler":0,"source":2},{"sampler":0,"source":3}]}